<svg xmlns="http://www.w3.org/2000/svg" viewBox="0 0 200 200">
<defs><radialGradient id="g" cx="50%" cy="40%" r="65%"><stop offset="0" stop-color="#fff"/><stop offset="1" stop-color="#e3f1dc"/></radialGradient></defs>
<rect width="200" height="200" rx="36" fill="url(#g)"/>
<ellipse cx="100" cy="172" rx="58" ry="8" fill="#000" opacity=".08"/>

<path d="M44 118 q0 -64 56 -64 q56 0 56 64z" fill="#2e8b57"/>
<path d="M100 54 v64 M72 62 q-10 26 -8 56 M128 62 q10 26 8 56" stroke="#237047" stroke-width="3" fill="none"/>
<circle cx="100" cy="54" r="6" fill="#237047"/>
<path d="M36 118 h128 q24 4 22 16 q-40 6 -150 0z" fill="#1d5e3a"/>
<g fill="#fff"><ellipse cx="100" cy="98" rx="9" ry="7"/><circle cx="90" cy="86" r="4"/><circle cx="98" cy="82" r="4"/><circle cx="106" cy="82" r="4"/><circle cx="113" cy="87" r="4"/></g>
</svg>